<svg width="24" height="24" viewBox="0 0 24 24" fill="none" xmlns="http://www.w3.org/2000/svg">
<g id="Frame">
<path id="Vector" d="M0.790039 20.6402L11.9998 1.91949L23.2095 20.6402H0.790039ZM4.72804 18.4022H19.2715L11.9998 6.29574L4.72804 18.4022ZM11.9945 17.3575C12.2575 17.3575 12.486 17.2623 12.6798 17.072C12.8736 16.8817 12.9705 16.6551 12.9705 16.3922C12.9705 16.1292 12.8754 15.9032 12.685 15.714C12.4947 15.525 12.268 15.4305 12.005 15.4305C11.742 15.4305 11.5136 15.5232 11.3198 15.7087C11.126 15.8944 11.029 16.1187 11.029 16.3817C11.029 16.6446 11.1242 16.8729 11.3145 17.0667C11.5049 17.2606 11.7315 17.3575 11.9945 17.3575ZM11.0998 14.4H12.8998V9.75549H11.0998V14.4Z" fill="#EE9972"/>
</g>
</svg>
