<svg width="40" height="44" viewBox="0 0 40 44" fill="none" xmlns="http://www.w3.org/2000/svg">
<path id="Vector" d="M5.45 43.25C4.14833 43.25 3.0395 42.7922 2.1235 41.8765C1.20783 40.9605 0.75 39.8517 0.75 38.55V8.45001C0.75 7.13468 1.20783 6.01418 2.1235 5.08851C3.0395 4.16285 4.14833 3.70001 5.45 3.70001H8.25V0.700012H12.35V3.70001H27.65V0.700012H31.75V3.70001H34.55C35.8653 3.70001 36.9858 4.16285 37.9115 5.08851C38.8372 6.01418 39.3 7.13468 39.3 8.45001V38.55C39.3 39.8517 38.8372 40.9605 37.9115 41.8765C36.9858 42.7922 35.8653 43.25 34.55 43.25H5.45ZM5.45 38.55H34.55V17.5H5.45V38.55ZM5.45 14.5H34.55V8.45001H5.45V14.5Z" fill="#495E57"/>
</svg>
