<svg width="48" height="48" viewBox="0 0 48 48" fill="none" xmlns="http://www.w3.org/2000/svg">
<g id="Frame">
<path id="Vector" d="M23.994 23.5825C21.583 23.5825 19.6135 22.8185 18.0855 21.2905C16.5575 19.7625 15.7935 17.793 15.7935 15.382C15.7935 12.9707 16.5575 10.9992 18.0855 9.46749C19.6135 7.93549 21.583 7.16949 23.994 7.16949C26.4053 7.16949 28.3816 7.93549 29.923 9.46749C31.4643 10.9992 32.235 12.9707 32.235 15.382C32.235 17.793 31.4643 19.7625 29.923 21.2905C28.3816 22.8185 26.4053 23.5825 23.994 23.5825ZM7.29346 41.074V35.6165C7.29346 34.2275 7.64612 33.0243 8.35146 32.007C9.05712 30.99 9.96962 30.2173 11.089 29.689C13.36 28.6703 15.5485 27.9062 17.6545 27.3965C19.7601 26.8872 21.8728 26.6325 23.9925 26.6325C26.1481 26.6325 28.2688 26.8955 30.3545 27.4215C32.4398 27.9478 34.6073 28.707 36.857 29.699C38.025 30.2067 38.9633 30.9693 39.672 31.987C40.3806 33.0043 40.735 34.2118 40.735 35.6095V41.074H7.29346ZM11.2545 37.113H36.7455V35.724C36.7455 35.2027 36.5871 34.7053 36.2705 34.232C35.9538 33.7587 35.5621 33.4082 35.0955 33.1805C33.0375 32.2035 31.1488 31.5328 29.4295 31.1685C27.7101 30.8042 25.8956 30.622 23.986 30.622C22.1143 30.622 20.2925 30.8042 18.5205 31.1685C16.7488 31.5328 14.8641 32.202 12.8665 33.176C12.3918 33.404 12.0045 33.7552 11.7045 34.2295C11.4045 34.7035 11.2545 35.2017 11.2545 35.724V37.113ZM23.994 19.6215C25.2226 19.6215 26.2385 19.2215 27.0415 18.4215C27.8441 17.6215 28.2455 16.6067 28.2455 15.377C28.2455 14.1393 27.846 13.1222 27.047 12.3255C26.248 11.5288 25.2343 11.1305 24.006 11.1305C22.7773 11.1305 21.7615 11.5293 20.9585 12.327C20.1558 13.1247 19.7545 14.1367 19.7545 15.363C19.7545 16.5973 20.154 17.6157 20.953 18.418C21.752 19.2203 22.7656 19.6215 23.994 19.6215Z" fill="#495E57"/>
</g>
</svg>
