<?xml version="1.0" encoding="UTF-8"?>
<svg id="Layer_2" data-name="Layer 2" xmlns="http://www.w3.org/2000/svg" width="54.23" height="38.94" viewBox="0 0 54.23 38.94">
  <defs>
    <style>
      .cls-1 {
        fill: #495e57;
        stroke-width: 0px;
      }
    </style>
  </defs>
  <g id="Layer_1-2" data-name="Layer 1-2">
    <path class="cls-1" d="m38.48,38.93l-.69-3.94,5.91-1.04-1.42-8.08c-2.9.04-5.48-.86-7.74-2.7-2.25-1.84-3.64-4.23-4.16-7.19l-2.08-11.82L51.93,0l2.08,11.82c.52,2.95.04,5.68-1.45,8.18s-3.6,4.22-6.35,5.18l1.42,8.08,5.91-1.04.69,3.94-15.76,2.78h0Zm5.1-17.15c1.84-.32,3.35-1.17,4.53-2.53s1.85-2.93,2.01-4.72l-15.17,2.67c.76,1.63,1.93,2.88,3.5,3.75,1.58.87,3.28,1.15,5.12.82h.01Zm-9.61-8.46l15.76-2.78-1.04-5.91-15.76,2.78s1.04,5.91,1.04,5.91Z"/>
    <path class="cls-1" d="m0,36.15l.69-3.94,5.91,1.04,1.42-8.08c-2.74-.96-4.86-2.68-6.35-5.18S-.29,14.77.23,11.82L2.31,0l23.64,4.17-2.08,11.82c-.52,2.95-1.91,5.35-4.16,7.19s-4.83,2.74-7.74,2.7l-1.42,8.08,5.91,1.04-.69,3.94-15.77-2.78h0Zm10.66-14.37c1.84.32,3.55.05,5.12-.82,1.58-.87,2.74-2.12,3.5-3.75l-15.17-2.67c.16,1.79.83,3.36,2.01,4.72,1.18,1.36,2.69,2.2,4.53,2.52h.01Zm-6.14-11.24l15.76,2.78,1.04-5.91-15.76-2.78s-1.04,5.91-1.04,5.91Z"/>
  </g>
</svg>