<svg width="48" height="48" viewBox="0 0 48 48" fill="none" xmlns="http://www.w3.org/2000/svg">
<g id="Frame">
<path id="Vector" d="M7.86497 18.802H40.113L38.0325 11.4805H10.0455L7.86497 18.802ZM33.978 22.7915H14.072L13.3435 27.5935H34.6565L33.978 22.7915ZM7.46297 40.4805L10.0825 22.7915H5.91497C5.09763 22.7915 4.44547 22.4589 3.95847 21.7935C3.47147 21.1282 3.33963 20.4035 3.56297 19.6195L6.49797 9.30853C6.6313 8.7812 6.91163 8.3512 7.33897 8.01853C7.76663 7.68586 8.2703 7.51953 8.84997 7.51953H39.15C39.711 7.51953 40.2051 7.68586 40.6325 8.01853C41.0601 8.3512 41.3595 8.7812 41.5305 9.30853L44.465 19.6195C44.6883 20.4035 44.5565 21.1282 44.0695 21.7935C43.5825 22.4589 42.921 22.7915 42.085 22.7915H37.939L40.565 40.4805H36.576L35.2825 31.5545H12.7455L11.424 40.4805H7.46297Z" fill="#495E57"/>
</g>
</svg>
