<svg width="48" height="48" viewBox="0 0 48 48" fill="none" xmlns="http://www.w3.org/2000/svg">
<g id="Frame">
<path id="Vector" d="M23.95 44.6065C21.389 44.6065 18.9745 44.121 16.7065 43.15C14.4385 42.179 12.4585 40.8522 10.7665 39.1695C9.07419 37.4868 7.73902 35.5115 6.76102 33.2435C5.78269 30.9755 5.29352 28.5488 5.29352 25.9635C5.29352 23.3782 5.78269 20.9553 6.76102 18.695C7.73902 16.4347 9.07419 14.4548 10.7665 12.7555C12.4585 11.0562 14.4385 9.71632 16.7065 8.73598C18.9745 7.75532 21.389 7.26498 23.95 7.26498C26.511 7.26498 28.9255 7.75532 31.1935 8.73598C33.4615 9.71632 35.4452 11.0562 37.1445 12.7555C38.8439 14.4548 40.1837 16.4347 41.164 18.695C42.1447 20.9553 42.635 23.3782 42.635 25.9635C42.635 28.5488 42.1447 30.9755 41.164 33.2435C40.1837 35.5115 38.8439 37.4892 37.1445 39.1765C35.4449 40.8635 33.461 42.1903 31.193 43.157C28.9254 44.1233 26.511 44.6065 23.95 44.6065ZM29.8305 34.2695L32.213 31.887L25.7695 25.4435V16H22.4305V26.8695L29.8305 34.2695ZM10.389 3.74548L12.7435 6.09998L3.95002 14.5935L1.62402 12.239L10.389 3.74548ZM37.511 3.74548L46.3045 12.239L43.95 14.5935L35.1565 6.09998L37.511 3.74548ZM23.947 40.6455C28.0404 40.6455 31.5135 39.22 34.3665 36.369C37.2192 33.5183 38.6455 30.0463 38.6455 25.953C38.6455 21.8597 37.22 18.3865 34.369 15.5335C31.5184 12.6808 28.0464 11.2545 23.953 11.2545C19.8597 11.2545 16.3865 12.68 13.5335 15.531C10.6809 18.3817 9.25452 21.8537 9.25452 25.947C9.25452 30.0403 10.68 33.5135 13.531 36.3665C16.3817 39.2192 19.8537 40.6455 23.947 40.6455Z" fill="#495E57"/>
</g>
</svg>
